<svg width="24" height="24" viewBox="0 0 24 24" fill="none" xmlns="http://www.w3.org/2000/svg">
<g id="Frame">
<path id="Vector" d="M7.68043 1.43994C4.23883 1.43994 1.44043 4.23834 1.44043 7.67994V16.3199C1.44043 19.7615 4.23883 22.5599 7.68043 22.5599H16.3204C19.762 22.5599 22.5604 19.7615 22.5604 16.3199V7.67994C22.5604 4.23834 19.762 1.43994 16.3204 1.43994H7.68043ZM17.7604 5.27994C18.2884 5.27994 18.7204 5.71194 18.7204 6.23994C18.7204 6.76794 18.2884 7.19994 17.7604 7.19994C17.2324 7.19994 16.8004 6.76794 16.8004 6.23994C16.8004 5.71194 17.2324 5.27994 17.7604 5.27994ZM12.0004 6.71994C14.914 6.71994 17.2804 9.08634 17.2804 11.9999C17.2804 14.9135 14.914 17.2799 12.0004 17.2799C9.08683 17.2799 6.72043 14.9135 6.72043 11.9999C6.72043 9.08634 9.08683 6.71994 12.0004 6.71994ZM12.0004 7.67994C9.61963 7.67994 7.68043 9.61914 7.68043 11.9999C7.68043 14.3807 9.61963 16.3199 12.0004 16.3199C14.3812 16.3199 16.3204 14.3807 16.3204 11.9999C16.3204 9.61914 14.3812 7.67994 12.0004 7.67994Z" fill="white"/>
</g>
</svg>
