<svg xmlns="http://www.w3.org/2000/svg" width="52" height="52" viewBox="0 0 52 52">
  <g id="Group_592" data-name="Group 592" transform="translate(-314 -3028)">
    <circle id="Ellipse_47" data-name="Ellipse 47" cx="26" cy="26" r="26" transform="translate(314 3028)" fill="#00b0f4"/>
    <path id="Path_42" data-name="Path 42" d="M9.219-9.356A3.486,3.486,0,0,0,6.425-8.3q-.912,1.06-.912,3.835A5.5,5.5,0,0,0,6.4-.993,3.347,3.347,0,0,0,9.16.1a3.95,3.95,0,0,0,2.953-.981q.951-.981.951-3.7A5.63,5.63,0,0,0,12.1-8.167,3.487,3.487,0,0,0,9.219-9.356Zm6.738.02a8.506,8.506,0,0,1,1.11,4.221,7.152,7.152,0,0,1-2.15,5.41q-2.15,2.061-6.768,2.061a5.242,5.242,0,0,0-2.7.446A1.5,1.5,0,0,0,4.84,4.1a1.566,1.566,0,0,0,.832,1.486q.832.456,6.084.456,5.172,0,6.708,1.06A3.569,3.569,0,0,1,20,10.243q0,3.131-3.26,4.954T6.643,17.02q-3.329,0-4.459-.9a3.05,3.05,0,0,1-1.13-2.527,5.458,5.458,0,0,1,.634-2.467A9.977,9.977,0,0,1,3.453,8.7,3.585,3.585,0,0,1,1.9,7.518a3.138,3.138,0,0,1-.585-1.932A3.563,3.563,0,0,1,2.065,3.4a6.211,6.211,0,0,1,2.3-1.754A4.2,4.2,0,0,1,2.313-.2,6.774,6.774,0,0,1,1.53-3.669a7.916,7.916,0,0,1,2.14-5.717q2.14-2.229,6.441-2.229a12.059,12.059,0,0,1,4.38.773,13.4,13.4,0,0,1,3.072-1.169,12.085,12.085,0,0,1,2.616.129.456.456,0,0,1,.218.426A3.778,3.778,0,0,1,19.93-9.98q-.466.961-.872.961a12.837,12.837,0,0,1-2.626-.892ZM6.009,8.9a4.867,4.867,0,0,0-1.06,1.566,4.515,4.515,0,0,0-.367,1.764,2.245,2.245,0,0,0,.813,1.942,6.026,6.026,0,0,0,3.25.595,13.154,13.154,0,0,0,5.38-.852,2.684,2.684,0,0,0,1.813-2.477A1.99,1.99,0,0,0,14.511,9.45Q13.183,8.9,6.009,8.9Z" transform="translate(329.948 3051.829)" fill="#fff"/>
  </g>
</svg>
